<svg id="visual" viewBox="0 0 900 600" width="900" height="600" xmlns="http://www.w3.org/2000/svg" xmlns:xlink="http://www.w3.org/1999/xlink" version="1.1"><rect x="0" y="0" width="900" height="600" fill="#131842"></rect><defs><linearGradient id="grad1_0" x1="33.3%" y1="0%" x2="100%" y2="100%"><stop offset="20%" stop-color="#f2baac" stop-opacity="1"></stop><stop offset="80%" stop-color="#f2baac" stop-opacity="1"></stop></linearGradient></defs><defs><linearGradient id="grad1_1" x1="33.3%" y1="0%" x2="100%" y2="100%"><stop offset="20%" stop-color="#f2baac" stop-opacity="1"></stop><stop offset="80%" stop-color="#d59897" stop-opacity="1"></stop></linearGradient></defs><defs><linearGradient id="grad1_2" x1="33.3%" y1="0%" x2="100%" y2="100%"><stop offset="20%" stop-color="#b57886" stop-opacity="1"></stop><stop offset="80%" stop-color="#d59897" stop-opacity="1"></stop></linearGradient></defs><defs><linearGradient id="grad1_3" x1="33.3%" y1="0%" x2="100%" y2="100%"><stop offset="20%" stop-color="#b57886" stop-opacity="1"></stop><stop offset="80%" stop-color="#915b75" stop-opacity="1"></stop></linearGradient></defs><defs><linearGradient id="grad1_4" x1="33.3%" y1="0%" x2="100%" y2="100%"><stop offset="20%" stop-color="#6b4166" stop-opacity="1"></stop><stop offset="80%" stop-color="#915b75" stop-opacity="1"></stop></linearGradient></defs><defs><linearGradient id="grad1_5" x1="33.3%" y1="0%" x2="100%" y2="100%"><stop offset="20%" stop-color="#6b4166" stop-opacity="1"></stop><stop offset="80%" stop-color="#432b55" stop-opacity="1"></stop></linearGradient></defs><defs><linearGradient id="grad1_6" x1="33.3%" y1="0%" x2="100%" y2="100%"><stop offset="20%" stop-color="#131842" stop-opacity="1"></stop><stop offset="80%" stop-color="#432b55" stop-opacity="1"></stop></linearGradient></defs><defs><linearGradient id="grad2_0" x1="0%" y1="0%" x2="66.7%" y2="100%"><stop offset="20%" stop-color="#f2baac" stop-opacity="1"></stop><stop offset="80%" stop-color="#f2baac" stop-opacity="1"></stop></linearGradient></defs><defs><linearGradient id="grad2_1" x1="0%" y1="0%" x2="66.7%" y2="100%"><stop offset="20%" stop-color="#d59897" stop-opacity="1"></stop><stop offset="80%" stop-color="#f2baac" stop-opacity="1"></stop></linearGradient></defs><defs><linearGradient id="grad2_2" x1="0%" y1="0%" x2="66.7%" y2="100%"><stop offset="20%" stop-color="#d59897" stop-opacity="1"></stop><stop offset="80%" stop-color="#b57886" stop-opacity="1"></stop></linearGradient></defs><defs><linearGradient id="grad2_3" x1="0%" y1="0%" x2="66.7%" y2="100%"><stop offset="20%" stop-color="#915b75" stop-opacity="1"></stop><stop offset="80%" stop-color="#b57886" stop-opacity="1"></stop></linearGradient></defs><defs><linearGradient id="grad2_4" x1="0%" y1="0%" x2="66.7%" y2="100%"><stop offset="20%" stop-color="#915b75" stop-opacity="1"></stop><stop offset="80%" stop-color="#6b4166" stop-opacity="1"></stop></linearGradient></defs><defs><linearGradient id="grad2_5" x1="0%" y1="0%" x2="66.7%" y2="100%"><stop offset="20%" stop-color="#432b55" stop-opacity="1"></stop><stop offset="80%" stop-color="#6b4166" stop-opacity="1"></stop></linearGradient></defs><defs><linearGradient id="grad2_6" x1="0%" y1="0%" x2="66.7%" y2="100%"><stop offset="20%" stop-color="#432b55" stop-opacity="1"></stop><stop offset="80%" stop-color="#131842" stop-opacity="1"></stop></linearGradient></defs><g transform="translate(900, 0)"><path d="M0 459.7C-46.7 444.3 -93.3 429 -131.3 404.2C-169.3 379.4 -198.7 345.3 -231.6 318.8C-264.5 292.2 -300.9 273.2 -339 246.3C-377.1 219.3 -416.8 184.4 -437.2 142.1C-457.6 99.7 -458.7 49.8 -459.7 0L0 0Z" fill="#2d214c"></path><path d="M0 394C-40 380.9 -80 367.7 -112.6 346.5C-145.1 325.2 -170.3 296 -198.5 273.2C-226.7 250.5 -257.9 234.2 -290.6 211.1C-323.2 188 -357.3 158.1 -374.7 121.8C-392.2 85.4 -393.1 42.7 -394 0L0 0Z" fill="#57355d"></path><path d="M0 328.4C-33.3 317.4 -66.7 306.4 -93.8 288.7C-121 271 -141.9 246.6 -165.4 227.7C-188.9 208.7 -214.9 195.2 -242.1 175.9C-269.3 156.7 -297.7 131.7 -312.3 101.5C-326.9 71.2 -327.6 35.6 -328.4 0L0 0Z" fill="#7f4d6e"></path><path d="M0 262.7C-26.7 253.9 -53.3 245.1 -75 231C-96.8 216.8 -113.5 197.3 -132.3 182.1C-151.1 167 -171.9 156.1 -193.7 140.7C-215.5 125.3 -238.2 105.4 -249.8 81.2C-261.5 57 -262.1 28.5 -262.7 0L0 0Z" fill="#a3697d"></path><path d="M0 197C-20 190.4 -40 183.8 -56.3 173.2C-72.6 162.6 -85.2 148 -99.3 136.6C-113.3 125.2 -129 117.1 -145.3 105.5C-161.6 94 -178.6 79 -187.4 60.9C-196.1 42.7 -196.6 21.4 -197 0L0 0Z" fill="#c5878e"></path><path d="M0 131.3C-13.3 127 -26.7 122.6 -37.5 115.5C-48.4 108.4 -56.8 98.7 -66.2 91.1C-75.6 83.5 -86 78.1 -96.9 70.4C-107.7 62.7 -119.1 52.7 -124.9 40.6C-130.7 28.5 -131 14.2 -131.3 0L0 0Z" fill="#e4a9a1"></path><path d="M0 65.7C-6.7 63.5 -13.3 61.3 -18.8 57.7C-24.2 54.2 -28.4 49.3 -33.1 45.5C-37.8 41.7 -43 39 -48.4 35.2C-53.9 31.3 -59.5 26.3 -62.5 20.3C-65.4 14.2 -65.5 7.1 -65.7 0L0 0Z" fill="#f2baac"></path></g><g transform="translate(0, 600)"><path d="M0 -459.7C48.6 -455.8 97.2 -451.9 140 -430.8C182.8 -409.7 219.7 -371.4 240.4 -330.9C261.1 -290.4 265.6 -247.8 301.8 -219.2C337.9 -190.7 405.6 -176.3 437.2 -142.1C468.8 -107.9 464.3 -53.9 459.7 0L0 0Z" fill="#2d214c"></path><path d="M0 -394C41.7 -390.7 83.3 -387.4 120 -369.3C156.6 -351.2 188.3 -318.3 206.1 -283.6C223.8 -248.9 227.7 -212.4 258.7 -187.9C289.6 -163.5 347.7 -151.1 374.7 -121.8C401.8 -92.5 397.9 -46.2 394 0L0 0Z" fill="#57355d"></path><path d="M0 -328.4C34.7 -325.6 69.4 -322.8 100 -307.7C130.5 -292.7 156.9 -265.3 171.7 -236.3C186.5 -207.4 189.7 -177 215.5 -156.6C241.3 -136.2 289.7 -125.9 312.3 -101.5C334.9 -77 331.6 -38.5 328.4 0L0 0Z" fill="#7f4d6e"></path><path d="M0 -262.7C27.8 -260.5 55.6 -258.3 80 -246.2C104.4 -234.1 125.5 -212.2 137.4 -189.1C149.2 -165.9 151.8 -141.6 172.4 -125.3C193.1 -109 231.8 -100.7 249.8 -81.2C267.9 -61.6 265.3 -30.8 262.7 0L0 0Z" fill="#a3697d"></path><path d="M0 -197C20.8 -195.4 41.7 -193.7 60 -184.6C78.3 -175.6 94.1 -159.2 103 -141.8C111.9 -124.5 113.8 -106.2 129.3 -94C144.8 -81.7 173.8 -75.5 187.4 -60.9C200.9 -46.2 199 -23.1 197 0L0 0Z" fill="#c5878e"></path><path d="M0 -131.3C13.9 -130.2 27.8 -129.1 40 -123.1C52.2 -117.1 62.8 -106.1 68.7 -94.5C74.6 -83 75.9 -70.8 86.2 -62.6C96.5 -54.5 115.9 -50.4 124.9 -40.6C133.9 -30.8 132.6 -15.4 131.3 0L0 0Z" fill="#e4a9a1"></path><path d="M0 -65.7C6.9 -65.1 13.9 -64.6 20 -61.5C26.1 -58.5 31.4 -53.1 34.3 -47.3C37.3 -41.5 37.9 -35.4 43.1 -31.3C48.3 -27.2 57.9 -25.2 62.5 -20.3C67 -15.4 66.3 -7.7 65.7 0L0 0Z" fill="#f2baac"></path></g></svg>